<!--?xml version="1.0" encoding="utf-8"?-->
<!-- Generator: Adobe Illustrator 18.1.1, SVG Export Plug-In . SVG Version: 6.00 Build 0)  -->

<svg version="1.1" id="_x32_" xmlns="http://www.w3.org/2000/svg" xmlns:xlink="http://www.w3.org/1999/xlink" x="0px" y="0px" viewBox="0 0 512 512" style="width: 256px; height: 256px; opacity: 1;" xml:space="preserve">
<style type="text/css">
	.st0{fill:#4B4B4B;}
</style>
<g>
	<path class="st0" d="M451.743,214.008c-2.691-3.373-6.085-6.212-10.003-8.324l-114.22-61.308
		c-1.808,6.56-3.695,12.468-5.555,18.101c-2.21,6.708-4.37,13.016-6.33,19.657c-2.591,8.843-4.852,18.345-6.486,30.539
		c-0.83,6.204-6.512,10.555-12.694,9.725c-6.207-0.83-10.559-6.508-9.728-12.69c2.665-20.161,7.164-34.511,11.563-47.735
		c2.287-6.834,4.5-13.372,6.56-20.54c1.934-6.73,3.72-14.046,5.252-22.689c0.126-0.66,0.226-1.312,0.329-1.986
		c1.935-11.438,3.395-25.291,4.021-43.013c0.026-0.801,0.049-1.609,0.049-2.409c-0.023-9.852-2.109-19.154-5.882-27.678
		c-3.795-8.494-9.273-16.188-16.033-22.674C279.011,8.02,260.414,0,240.304,0c-20.514,0-38.988,8.294-52.434,21.718
		c-13.42,13.446-21.715,31.917-21.715,52.434c0,11.386,2.035,23.171,5.378,35.512c3.344,12.342,7.991,25.209,13.02,38.662
		c2.691,7.264,5.504,14.699,8.268,22.341c2.238,6.234,4.451,12.623,6.537,19.131c4.8,15.032,8.899,30.835,11.134,47.557
		c0.83,6.182-3.52,11.86-9.728,12.69c-6.182,0.83-11.864-3.514-12.694-9.725c-1.882-14.024-5.277-27.648-9.45-41.02l-106.496,48.81
		c-5.533,2.543-10.133,6.508-13.398,11.341l99.361,97.923L451.743,214.008z" style="fill: rgb(75, 75, 75);"></path>
	<polygon class="st0" points="146.042,373.765 53.044,282.097 53.044,339.757 146.042,451.357 	" style="fill: rgb(75, 75, 75);"></polygon>
	<path class="st0" d="M458.908,232.88L166.155,375.803h-0.004v86.412h0.004l292.8-158.756v-68.971
		C458.956,233.962,458.93,233.406,458.908,232.88z" style="fill: rgb(75, 75, 75);"></path>
	<path class="st0" d="M155.467,484.438L61.78,373.668l0.152,24.03c0.033,4.647,1.697,9.139,4.703,12.69l82.08,96.916
		c4.058,4.795,10.914,6.085,16.436,3.09L429.303,364.24c6.459-3.498,10.462-10.281,10.41-17.626l-0.118-16.122L155.467,484.438z" style="fill: rgb(75, 75, 75);"></path>
</g>
</svg>
